<?xml version="1.0" encoding="iso-8859-1"?>
<!-- Uploaded to: SVG Repo, www.svgrepo.com, Generator: SVG Repo Mixer Tools -->
<!DOCTYPE svg PUBLIC "-//W3C//DTD SVG 1.1//EN" "http://www.w3.org/Graphics/SVG/1.1/DTD/svg11.dtd">
<svg fill="#000000" version="1.1" id="Capa_1" xmlns="http://www.w3.org/2000/svg" xmlns:xlink="http://www.w3.org/1999/xlink" 
	 width="800px" height="800px" viewBox="0 0 31.962 31.962"
	 xml:space="preserve">
<g>
	<g>
		<circle cx="4.185" cy="6.086" r="2.156"/>
		<path d="M7.508,17.062c0.481,0,0.874-0.401,0.874-0.886c0.013-4.48-1.44-6.271-2.45-6.965L4.137,11.69L2.452,9.368
			C1.441,10.063-0.013,11.838,0,16.318c0.002,0.481,0.393,0.871,0.875,0.871h0.002c0.482,0,0.87-0.395,0.869-0.875
			c-0.003-1.308,0.073-2.312,0.326-3.091v2.82c0,0.406,0.192,0.785,0.319,1.11v7.076c0,0.482,0.405,0.875,0.888,0.875
			c0.483,0,0.89-0.393,0.89-0.875l0.072-0.004c0,0.481,0.401,0.879,0.884,0.879c0.481,0,0.901-0.402,0.901-0.888v-7.219
			c0.129-0.326,0.319-0.705,0.319-1.111v-2.821c0.19,0.78,0.313,1.799,0.308,3.105c-0.001,0.482,0.372,0.891,0.853,0.891H7.508
			L7.508,17.062z"/>
		<path d="M5.243,8.477L4.732,8.689C4.627,8.511,4.434,8.386,4.21,8.386c-0.223,0-0.415,0.122-0.521,0.301L3.176,8.466
			c-0.07-0.031-0.16-0.023-0.227,0.021c-0.067,0.045-0.111,0.12-0.111,0.2v0.639c0,0.076,0.039,0.148,0.1,0.194
			C3,9.565,3.081,9.58,3.153,9.558c0.201-0.061,0.45-0.135,0.591-0.181C3.854,9.511,4.022,9.6,4.21,9.6
			c0.181,0,0.343-0.083,0.455-0.209C4.81,9.434,5.061,9.51,5.266,9.57c0.072,0.022,0.155,0.01,0.216-0.036
			C5.544,9.487,5.58,9.416,5.58,9.34V8.698c0-0.081-0.043-0.157-0.108-0.201C5.403,8.451,5.315,8.442,5.243,8.477z"/>
		<circle cx="16.109" cy="11.458" r="2.269"/>
		<path d="M19.605,22.994c0.504,0,0.918-0.417,0.92-0.926c0.013-4.713-1.518-6.59-2.578-7.321l-1.89,2.606l-1.772-2.44
			c-1.063,0.73-2.593,2.62-2.577,7.334c0.002,0.507,0.411,0.938,0.919,0.938h0.002c0.507,0,0.939-0.437,0.938-0.94
			c-0.004-1.376,0.048-2.455,0.366-3.274v2.967c0,0.431,0.128,0.826,0.256,1.17v7.445c0,0.508,0.443,0.92,0.95,0.92
			c0.508,0,0.944-0.412,0.944-0.92l0.081-0.007c0,0.507,0.406,0.927,0.914,0.927c0.509,0,0.937-0.425,0.937-0.934v-7.596
			c0.19-0.342,0.318-0.739,0.318-1.166v-2.971c0.255,0.819,0.354,1.887,0.35,3.26C18.681,22.575,19.097,22.995,19.605,22.994
			L19.605,22.994L19.605,22.994z"/>
		<path d="M17.222,13.976l-0.536,0.225c-0.112-0.188-0.313-0.319-0.551-0.319c-0.234,0-0.436,0.129-0.547,0.315l-0.54-0.231
			c-0.075-0.033-0.164-0.023-0.236,0.021c-0.071,0.049-0.111,0.127-0.111,0.212v0.671c0,0.08,0.036,0.156,0.101,0.204
			c0.064,0.05,0.148,0.062,0.224,0.039c0.212-0.064,0.473-0.142,0.623-0.189c0.117,0.141,0.29,0.233,0.487,0.233
			c0.191,0,0.362-0.086,0.479-0.221c0.15,0.046,0.417,0.127,0.633,0.191c0.076,0.022,0.158,0.009,0.224-0.039
			c0.064-0.048,0.1-0.123,0.1-0.204v-0.675c0-0.087-0.041-0.167-0.111-0.212C17.39,13.949,17.299,13.94,17.222,13.976z"/>
		<circle cx="27.767" cy="6.08" r="2.156"/>
		<path d="M29.513,9.209l-1.796,2.478l-1.685-2.323c-1.011,0.694-2.466,2.473-2.452,6.952c0.002,0.481,0.394,0.873,0.875,0.873
			h0.002c0.48,0,0.877-0.396,0.876-0.876c-0.004-1.307,0.018-2.314,0.335-3.094v2.82c0,0.406,0.127,0.784,0.318,1.109v7.078
			c0,0.481,0.396,0.873,0.88,0.873c0.481,0,0.887-0.392,0.887-0.873l0.069-0.007c0,0.482,0.408,0.88,0.89,0.88
			c0.483,0,0.908-0.4,0.908-0.886v-7.219c0.128-0.327,0.256-0.705,0.256-1.111v-2.822c0.255,0.778,0.338,1.802,0.333,3.107
			c-0.001,0.479,0.396,0.894,0.878,0.894h0.002c0.479,0,0.873-0.404,0.873-0.889C31.978,11.693,30.521,9.904,29.513,9.209z"/>
		<path d="M28.822,8.472l-0.512,0.214c-0.104-0.181-0.297-0.304-0.521-0.304c-0.224,0-0.415,0.121-0.521,0.301l-0.515-0.221
			c-0.071-0.032-0.151-0.023-0.221,0.021c-0.068,0.046-0.104,0.121-0.104,0.201V9.32c0,0.076,0.029,0.149,0.094,0.194
			c0.061,0.046,0.138,0.059,0.209,0.037c0.203-0.063,0.449-0.136,0.591-0.181c0.11,0.134,0.276,0.222,0.465,0.222
			c0.182,0,0.343-0.082,0.454-0.209c0.146,0.044,0.396,0.12,0.603,0.181c0.072,0.022,0.161,0.009,0.221-0.037
			c0.062-0.045,0.106-0.117,0.106-0.194V8.691c0-0.081-0.051-0.157-0.114-0.201C28.988,8.445,28.896,8.438,28.822,8.472z"/>
		<circle cx="16.104" cy="1.728" r="1.238"/>
		<path d="M14.203,8.135h0.002c0.277,0,0.5-0.239,0.499-0.517C14.7,6.867,14.7,6.275,14.89,5.829v1.62
			c0,0.235,0.064,0.451,0.191,0.638v0.521c0.702-0.133,1.404-0.141,2.104-0.048V8c0.062-0.188,0.129-0.405,0.129-0.638V5.738
			c0.127,0.447,0.193,1.021,0.191,1.771c-0.001,0.277,0.229,0.499,0.506,0.499h0.002c0.276,0,0.502-0.218,0.502-0.497
			c0.008-2.573-0.826-3.596-1.408-3.994l-1.03,1.427l-0.968-1.332c-0.581,0.399-1.416,1.434-1.407,4.009
			C13.702,7.896,13.926,8.135,14.203,8.135z"/>
		<path d="M16.711,3.102l-0.292,0.123c-0.061-0.104-0.17-0.177-0.299-0.177s-0.239,0.07-0.3,0.175l-0.293-0.127
			c-0.044-0.02-0.091-0.014-0.13,0.012s-0.061,0.07-0.061,0.117v0.364c0,0.045,0.02,0.086,0.054,0.112
			c0.035,0.027,0.082,0.035,0.124,0.022c0.115-0.037,0.256-0.078,0.339-0.104c0.062,0.076,0.158,0.126,0.267,0.126
			c0.104,0,0.196-0.046,0.262-0.12c0.081,0.026,0.228,0.069,0.345,0.105c0.041,0.012,0.102,0.006,0.135-0.022
			c0.037-0.025,0.07-0.067,0.07-0.111V3.229c0-0.048-0.037-0.09-0.076-0.116C16.816,3.085,16.755,3.082,16.711,3.102z"/>
		<path d="M12.803,25.988l-3.996-3.316c-0.413-0.344-1.026-0.287-1.37,0.127c-0.343,0.412-0.285,1.025,0.128,1.368l3.995,3.317
			c0.182,0.152,0.401,0.226,0.621,0.226c0.279,0,0.556-0.119,0.749-0.353C13.273,26.945,13.214,26.333,12.803,25.988z"/>
		<path d="M23.452,22.671l-3.996,3.316c-0.413,0.345-0.472,0.957-0.126,1.369c0.189,0.231,0.469,0.353,0.749,0.353
			c0.218,0,0.438-0.071,0.619-0.226l3.995-3.317c0.414-0.343,0.471-0.956,0.127-1.368C24.479,22.384,23.863,22.327,23.452,22.671z"
			/>
		<path d="M8.187,8.259c0.22,0,0.438-0.072,0.62-0.224l3.996-3.317c0.411-0.345,0.471-0.956,0.127-1.37
			c-0.345-0.414-0.957-0.472-1.37-0.127L7.564,6.54c-0.413,0.344-0.47,0.956-0.127,1.369C7.63,8.141,7.907,8.259,8.187,8.259z"/>
		<path d="M19.456,4.718l3.996,3.317c0.181,0.151,0.399,0.224,0.62,0.224c0.279,0,0.558-0.119,0.748-0.351
			c0.344-0.413,0.287-1.025-0.127-1.369l-3.995-3.318c-0.412-0.345-1.025-0.285-1.368,0.127C18.984,3.763,19.043,4.374,19.456,4.718
			z"/>
	</g>
</g>
</svg>